PathFileType	4	(X/Y/Z)	/Users/niels/Desktop/University/Third Semester/Perception and Action/Exam/Gymnastics Motion Tracking/Code for Gym Tracking/Analyzed Data/Webcam_Backflip/id5_8_trajectory_Sports2D/id5_8_trajectory_Sports2D_px_person00.trc
DataRate	CameraRate	NumFrames	NumMarkers	Units	OrigDataRate	OrigDataStartFrame	OrigNumFrames
29.77777777777778	29.77777777777778	13	22	m	29.77777777777778	33	135
Frame#	Time	Hip			RHip			RKnee			RAnkle			RBigToe			RSmallToe			RHeel			LHip			LKnee			LAnkle			LBigToe			LSmallToe			LHeel			Neck			Head			Nose			RShoulder			RElbow			RWrist			LShoulder			LElbow			LWrist		
		X1	Y1	Z1	X2	Y2	Z2	X3	Y3	Z3	X4	Y4	Z4	X5	Y5	Z5	X6	Y6	Z6	X7	Y7	Z7	X8	Y8	Z8	X9	Y9	Z9	X10	Y10	Z10	X11	Y11	Z11	X12	Y12	Z12	X13	Y13	Z13	X14	Y14	Z14	X15	Y15	Z15	X16	Y16	Z16	X17	Y17	Z17	X18	Y18	Z18	X19	Y19	Z19	X20	Y20	Z20	X21	Y21	Z21	X22	Y22	Z22
33	1.1082089552238805	1.3166640784991128	-1.0549375181283793	0.0	1.0961367187499993	-0.9895751953125	0.0	0.8876216668689381	-0.8451687712444498	0.0			0.0	0.531649658203125	-0.6760112304687499	0.0	0.8820671231241144	-0.680852789842682	0.0			0.0	1.613343570940822	-1.001958959783449	0.0	1.8604965263156634	-0.8565556844159609	0.0			0.0	0.8820671386718881	-0.5317695312500077	0.0	0.6954054585695996	-0.8293316667726021	0.0	1.375857421875	-0.5512734375000002	0.0	1.0612073177866574	-0.8770010245633947	0.0	0.9964460477337789	-0.42207691558441485	0.0	0.98879734368119	-0.6846293513906794	0.0	0.7819547561773679	-1.0008726703907889	0.0	0.6981353888848225	-1.004102271709112	0.0	0.8579806121230616	-0.9939024631310738	0.0	1.433103878690621	-0.9075564782127851	0.0	1.641964544075154	-1.0171422613232834	0.0	1.4607241243347282	-1.0277482363023283	0.0
34	1.1417910447761195	1.316663986476027	-1.0549373919809788	0.0	1.0961367187499993	-0.9895751953125	0.0	0.8876217338768382	-0.8451687551117756	0.0			0.0	0.531649658203125	-0.6760112304687499	0.0	0.8820671210173413	-0.6808527907423639	0.0			0.0	1.6133433394239687	-1.0019589279874883	0.0	1.8222895315283012	-0.8514507291477508	0.0			0.0	0.8820671386719088	-0.53176953125002	0.0	0.6954181188631262	-0.8293991538432958	0.0	1.375857421875	-0.5512734375000002	0.0	1.139286596407201	-0.8573004873403038	0.0	1.0615260693998116	-0.3957852846259764	0.0	1.0519853207737526	-0.6515714345559181	0.0	0.8634622044195859	-0.9924489510366152	0.0	0.7897256574074245	-0.9918843893768621	0.0	0.8690366421586375	-0.9840759270524914	0.0	1.5275689415013054	-0.8826865296228755	0.0	1.7598801934154926	-1.0120558204311259	0.0	1.6256337567010843	-1.022729757118683	0.0
35	1.1753731343283582	1.3166638132445894	-1.0549371569974169	0.0	1.0961367187499993	-0.9895751953125	0.0	0.887624031050188	-0.8451682020381657	0.0			0.0	0.531649658203125	-0.6760112304687499	0.0	0.8820671274533449	-0.680852787993916	0.0			0.0	1.613343046947439	-1.0019588878194743	0.0	1.7914457650049005	-0.8476339984626966	0.0			0.0	0.8820671386719368	-0.5317695312500368	0.0	0.6954472708319426	-0.8298786046819355	0.0	1.375857421875	-0.5512734375000002	0.0	1.1605908862276024	-0.8516144070436519	0.0	1.07919267978217	-0.3873928280687817	0.0	1.0691915018738112	-0.6395964651053242	0.0	0.8844183449775516	-0.990197390856442	0.0	0.8196967479209439	-0.9872783245087281	0.0	0.8649280232718897	-0.979252778735299	0.0	1.5520540423533429	-0.8726856422288674	0.0	1.7896024478260044	-1.0127619557044867	0.0	1.6850525490453914	-1.0197821799736542	0.0
36	1.208955223880597	1.3166635565181857	-1.054936811954593	0.0	1.0961367187499993	-0.9895751953125	0.0	0.8876302292249562	-0.8451667097482103	0.0			0.0	0.531649658203125	-0.6760112304687499	0.0	0.8820671503771897	-0.6808527782044572	0.0			0.0	1.613342797970405	-1.0019588536255748	0.0	1.7703090582941865	-0.8465876111949572	0.0			0.0	0.8820671386719644	-0.5317695312500533	0.0	0.6955021486198828	-0.8308834221696809	0.0	1.375857421875	-0.5512734375000002	0.0	1.1101561293696325	-0.8629264036156502	0.0	1.0372735841206844	-0.400829077333467	0.0	1.028562784067965	-0.6535680271694082	0.0	0.8294678895106287	-0.9940999280200052	0.0	0.7814237290610113	-0.9910735451953043	0.0	0.8416283998251426	-0.9804133453535129	0.0	1.4883552069694037	-0.8822455621223351	0.0	1.7098667877947722	-1.0188293516124516	0.0	1.6187445624879817	-1.021265292956419	0.0
37	1.242537313432836	1.3166632653326942	-1.0549364258280394	0.0	1.0961367187499993	-0.9895751953125	0.0	0.887641826126673	-0.8451639176448887	0.0			0.0	0.531649658203125	-0.6760112304687499	0.0	0.882067198258555	-0.6808527577570734	0.0			0.0	1.6133428171094637	-1.0019588562540864	0.0	1.761455316791243	-0.8479532822194433	0.0			0.0	0.8820671386719732	-0.5317695312500585	0.0	0.6955836027071343	-0.8324449104609888	0.0	1.375857421875	-0.5512734375000002	0.0	0.995580508526091	-0.8888165785311752	0.0	0.9424239929072116	-0.43280273024384563	0.0	0.936601944942885	-0.6898060577862564	0.0	0.7072066850209092	-1.00219832853953	0.0	0.6830699995203385	-1.0021670016268645	0.0	0.797596962751542	-0.9867435568563057	0.0	1.3462591342941832	-0.9093620333855147	0.0	1.5305580596947177	-1.028679665149102	0.0	1.44387083840421	-1.0282763962490193	0.0
38	1.2761194029850746	1.3166630809997457	-1.0549361925627156	0.0	1.0961367187499993	-0.9895751953125	0.0	0.8876589211617129	-0.8451598017942956	0.0			0.0	0.531649658203125	-0.6760112304687499	0.0	0.8820672753019146	-0.6808527248562751	0.0			0.0	1.6133434732421106	-1.001958946365746	0.0	1.7661736571861069	-0.8502351719028138	0.0			0.0	0.8820671386719302	-0.5317695312500329	0.0	0.6956743464359403	-0.8343323006851612	0.0	1.375857421875	-0.5512734375000002	0.0	0.847802192132473	-0.9214303497331894	0.0	0.8205174184182105	-0.4732720650645861	0.0	0.8184670054059932	-0.7363553383916771	0.0	0.5507653210507888	-1.0115056033218135	0.0	0.5476868180386916	-1.0177061694544842	0.0	0.7345144217366091	-0.9968167126442671	0.0	1.164040855180916	-0.9456825252028545	0.0	1.29575516561425	-1.0398608835764473	0.0	1.2116445126268292	-1.0393126306259413	0.0
39	1.3097014925373134	1.3166632760002637	-1.0549364820694356	0.0	1.0961367187499993	-0.9895751953125	0.0	0.887678161373138	-0.8451551694632521	0.0			0.0	0.531649658203125	-0.6760112304687499	0.0	0.8820673726312198	-0.6808526832925136	0.0			0.0	1.6133452436029012	-1.0019591895027844	0.0	1.7831248625286578	-0.8521655435583679	0.0			0.0	0.8820671386717901	-0.5317695312499494	0.0	0.6957261147994485	-0.835797709996672	0.0	1.375857421875	-0.5512734375000002	0.0	0.7083020900572781	-0.9507376328814375	0.0	0.7058851079953492	-0.5097866893735119	0.0	0.7074415945884039	-0.7780378195278477	0.0	0.4039653853645218	-1.0189930241113896	0.0	0.40908043182576825	-1.03351402291792	0.0	0.657561504260941	-1.0090930412325652	0.0	0.9924211269043546	-0.9802469060721026	0.0	1.0681552092489772	-1.0496346885932046	0.0	0.9881332411263785	-1.051028617523434	0.0
40	1.3432835820895521	1.3166642624662566	-1.054937848745007	0.0	1.0961367187499993	-0.9895751953125	0.0	0.8876900221593036	-0.845152313821519	0.0			0.0	0.531649658203125	-0.6760112304687499	0.0	0.8820674554849167	-0.6808526479104537	0.0			0.0	1.6133485559815977	-1.0019596444168057	0.0	1.8089962250245244	-0.8532142623145953	0.0			0.0	0.8820671386715063	-0.5317695312497802	0.0	0.6956479166062354	-0.8353092233880641	0.0	1.375857421875	-0.5512734375000002	0.0	0.6059629073707995	-0.9700431157356395	0.0	0.6221734990544974	-0.5344119262549654	0.0	0.6264293770510138	-0.8049587964342314	0.0	0.2969218989829624	-1.0229785523971011	0.0	0.29785723790380736	-1.0458899321610993	0.0	0.5744767067447748	-1.0220424663426413	0.0	0.866598389079459	-1.0053113048632427	0.0	0.8955463960648834	-1.0562856539579437	0.0	0.8210000644351566	-1.0605704779808987	0.0
41	1.376865671641791	1.316666521447042	-1.0549409315257359	0.0	1.0961367187499993	-0.9895751953125	0.0	0.8876762538887365	-0.8451556287026307	0.0			0.0	0.531649658203125	-0.6760112304687499	0.0	0.8820674491158884	-0.6808526506303003	0.0			0.0	1.6133534387715036	-1.0019603150072773	0.0	1.8399620341210454	-0.853376891178603	0.0			0.0	0.88206713867106	-0.5317695312495141	0.0	0.6953049281886323	-0.8304275354314312	0.0	1.375857421875	-0.5512734375000002	0.0	0.5486303375339389	-0.9779872310048421	0.0	0.5755435988344053	-0.5457862093532801	0.0	0.5813856274783737	-0.8153852672005069	0.0	0.23750484800837834	-1.023605283896013	0.0	0.22934991222889528	-1.053378910141474	0.0	0.49407661072120396	-1.0342260102969612	0.0	0.7962609245730962	-1.0186827537261656	0.0	0.7945087713329069	-1.0595835933285962	0.0	0.7260039354837076	-1.0667142198890864	0.0
42	1.4104477611940298	1.3166703865120226	-1.0549461565120375	0.0	1.0961367187499993	-0.9895751953125	0.0	0.8876093993728995	-0.8451717247793966	0.0			0.0	0.531649658203125	-0.6760112304687499	0.0	0.8820672307703866	-0.6808527438731357	0.0			0.0	1.6133589342806651	-1.0019610697471188	0.0	1.8723133704143573	-0.8528923332839442	0.0			0.0	0.8820671386705115	-0.531769531249187	0.0	0.6945441737986577	-0.8181072049035306	0.0	1.375857421875	-0.5512734375000002	0.0	0.5327293246907433	-0.9763067437599664	0.0	0.5627471604279378	-0.5458321399598971	0.0	0.5691071650764695	-0.8120043261770318	0.0	0.2217870649768725	-1.0221482348180964	0.0	0.2049673929559933	-1.0567363091847628	0.0	0.4250730444722209	-1.0443374672820098	0.0	0.7772857949977713	-1.0216381269448975	0.0	0.761968853141111	-1.060109169783539	0.0	0.7003596957130145	-1.0693313091275023	0.0
43	1.4440298507462686	1.3166756159324953	-1.0549531557018499	0.0	1.0961367187499993	-0.9895751953125	0.0	0.8874576433287603	-0.845208261994535	0.0			0.0	0.531649658203125	-0.6760112304687499	0.0	0.8820666416359837	-0.6808529954586353	0.0			0.0	1.6133623220338218	-1.001961535012885	0.0	1.9021791226685512	-0.8520952904300514	0.0			0.0	0.8820671386700741	-0.5317695312489262	0.0	0.6932685062086034	-0.7958261631794004	0.0	1.375857421875	-0.5512734375000002	0.0	0.5536205376546345	-0.9672170717799747	0.0	0.5796524685149583	-0.5365614068566774	0.0	0.585555817535383	-0.7979176037744236	0.0	0.2450882168397479	-1.0202457942648957	0.0	0.2205390861128041	-1.0577314636110997	0.0	0.3744259967954419	-1.0513684425268257	0.0	0.8043192883361997	-1.0161700195244179	0.0	0.7913027275449105	-1.058535799114483	0.0	0.738917499140146	-1.068787967229991	0.0
44	1.4776119402985075	1.3166807323387033	-1.0549598779412992	0.0	1.0961367187499993	-0.9895751953125	0.0	0.887199408660464	-0.8452704353191364	0.0			0.0	0.531649658203125	-0.6760112304687499	0.0	0.8820655393543154	-0.6808534661798883	0.0			0.0	1.6133583894585521	-1.001960994922577	0.0	1.9250169498555412	-0.8513744144690798	0.0			0.0	0.8820671386701919	-0.5317695312489963	0.0	0.6915793431969673	-0.7639809807773491	0.0	1.375857421875	-0.5512734375000002	0.0	0.6088080513371442	-0.9522928739716422	0.0	0.6238884499076365	-0.5191089379409473	0.0	0.6285365032851478	-0.7751438934082499	0.0	0.3052059000747933	-1.0194612691852123	0.0	0.27092006276301056	-1.0581172981219942	0.0	0.3448873946119659	-1.0549483429937154	0.0	0.8747188792860284	-1.00373794922213	0.0	0.8781428470931897	-1.0553283654685066	0.0	0.8393813468969069	-1.065728773671516	0.0
45	1.5111940298507462	1.316682230714846	-1.054961535393244	0.0	1.0961367187499993	-0.9895751953125	0.0	0.8868520235062766	-0.845354072792485	0.0			0.0	0.531649658203125	-0.6760112304687499	0.0	0.8820639144767587	-0.6808541600718595	0.0			0.0	1.6133392940624807	-1.001958372407396	0.0	1.9356018016881826	-0.8511808124236528	0.0			0.0	0.8820671386715776	-0.531769531249822	0.0	0.6898818625219103	-0.7279180630423366	0.0	1.375857421875	-0.5512734375000002	0.0	0.6945558751922677	-0.932839030698419	0.0	0.6922584392103107	-0.4945928006950562	0.0	0.6951491717860364	-0.745360921026704	0.0	0.39840874560656264	-1.0207841390925936	0.0	0.34787474121374984	-1.0590276785055408	0.0	0.33386381484671734	-1.0555144966890717	0.0	0.9842212465937803	-0.9857002637169013	0.0	1.0153407440885125	-1.0508399694920076	0.0	0.9959029078088095	-1.06095955316366	0.0
